<?xml version="1.0" encoding="UTF-8"?>
<svg xmlns="http://www.w3.org/2000/svg" xmlns:xlink="http://www.w3.org/1999/xlink" version="1.1" width="512" height="512" x="0" y="0" viewBox="0 0 24 24" style="enable-background:new 0 0 512 512" xml:space="preserve" class="">
  <g>
    <g fill="#000" fill-rule="evenodd" clip-rule="evenodd">
      <path d="M7.455 13.597A3.484 3.484 0 0 0 5.5 13h-.176A3.324 3.324 0 0 0 2 16.324v.732c0 .521.423.944.944.944h.954c.114-.344.25-.678.406-1H3v-.676A2.324 2.324 0 0 1 5.324 14H5.5c.37 0 .721.08 1.037.225.29-.23.597-.44.918-.628zM20.102 18H21.5a.5.5 0 0 0 .5-.5v-1.059c0-1.9-1.54-3.441-3.441-3.441-.72 0-1.38.248-1.902.663.304.186.595.39.87.614A2.05 2.05 0 0 1 18.56 14 2.441 2.441 0 0 1 21 16.441V17h-1.304c.157.322.292.656.406 1zM5.5 11a1.5 1.5 0 1 0 0-3 1.5 1.5 0 0 0 0 3zm0 1a2.5 2.5 0 1 0 0-5 2.5 2.5 0 0 0 0 5zM18.5 11a1.5 1.5 0 1 0 0-3 1.5 1.5 0 0 0 0 3zm0 1a2.5 2.5 0 1 0 0-5 2.5 2.5 0 0 0 0 5z" fill="#cbc4c4" opacity="1" data-original="#000000" class=""/>
      <path d="M12 10a3 3 0 1 0 0-6 3 3 0 0 0 0 6zm0 1a4 4 0 1 0 0-8 4 4 0 0 0 0 8zM12.45 13.5H11a7 7 0 0 0-7 7v.5h16a7.55 7.55 0 0 0-7.55-7.5zm0-1H11a8 8 0 0 0-8 8v.5a1 1 0 0 0 1 1h16.05a.95.95 0 0 0 .95-.95 8.55 8.55 0 0 0-8.55-8.55z" fill="#cbc4c4" opacity="1" data-original="#000000" class=""/>
    </g>
  </g>
</svg>
