<?xml version="1.0" encoding="UTF-8"?>
<svg xmlns="http://www.w3.org/2000/svg" xmlns:xlink="http://www.w3.org/1999/xlink" version="1.1" width="512" height="512" x="0" y="0" viewBox="0 0 24 24" style="enable-background:new 0 0 512 512" xml:space="preserve" class="">
  <g>
    <path d="M18.488 1.99h-7.485a1 1 0 1 0 0 2h7.485c.843 0 1.529.683 1.529 1.523v12.974c0 .84-.686 1.524-1.529 1.524h-7.485a1 1 0 1 0 0 2h7.485a3.53 3.53 0 0 0 3.529-3.524V5.513a3.53 3.53 0 0 0-3.529-3.524z" fill="#bebebe" opacity="1" data-original="#000000" class=""/>
    <path d="M5.28 13.003h9.687a1 1 0 1 0 0-2H5.3l3.062-3.27a1 1 0 1 0-1.459-1.367l-4.599 4.911a.988.988 0 0 0-.248.369c-.026.065-.03.134-.041.202-.009.053-.032.1-.032.155l.002.006a.996.996 0 0 0 .269.69l4.65 4.964a.996.996 0 0 0 1.412.047 1 1 0 0 0 .046-1.414z" fill="#bebebe" opacity="1" data-original="#000000" class=""/>
  </g>
</svg>
