<?xml version="1.0" encoding="UTF-8"?>
<svg xmlns="http://www.w3.org/2000/svg" xmlns:xlink="http://www.w3.org/1999/xlink" version="1.1" width="512" height="512" x="0" y="0" viewBox="0 0 472.251 472.251" style="enable-background:new 0 0 512 512" xml:space="preserve" class="">
  <g transform="matrix(1.000000000000001,0,0,1.000000000000001,-5.684341886080802e-14,-1.1368683772161603e-13)">
    <path d="M443.031 137.652 413.73 109.5 259.506 270.021a20.388 20.388 0 0 1-14.681 6.27h-.027a20.41 20.41 0 0 1-14.675-6.229l-80.403-83.28L35.187 307.339a20.328 20.328 0 0 1-14.79 6.352 20.324 20.324 0 0 1-14.049-5.611c-8.167-7.758-8.5-20.672-.734-28.838l129.2-136a20.396 20.396 0 0 1 14.708-6.351h.082a20.403 20.403 0 0 1 14.674 6.229l80.485 83.368L384.32 81.239l-29.302-28.152L472.25 19.162l-29.219 118.49zM20.397 340.89c-4.692 0-9.248-.68-13.6-1.973v114.172h61.2V312.263l-13.124 13.803c-8.908 9.453-21.488 14.824-34.476 14.824zm61.2 112.199h61.2V233.518l-61.2 64.396v155.175zm128.996-164.15-54.196-56.101v220.251h61.2V294.921a48.573 48.573 0 0 1-7.004-5.982zm34.272 14.551c-4.691 0-9.249-.68-13.668-2.039V453.09h61.201V275.066l-13.26 13.805c-8.909 9.248-21.42 14.619-34.273 14.619zm61.133-42.569v192.168h61.199V197.206l-61.199 63.715zm108.527-112.947-33.728 35.088v270.027h61.2V174.358l-27.472-26.384z" fill="#bebebe" opacity="1" data-original="#000000" class=""/>
  </g>
</svg>
